<?xml version="1.0" standalone="no"?>
<!DOCTYPE svg PUBLIC "-//W3C//DTD SVG 20010904//EN"
 "http://www.w3.org/TR/2001/REC-SVG-20010904/DTD/svg10.dtd">
<svg version="1.0" xmlns="http://www.w3.org/2000/svg"
 width="500.000000pt" height="500.000000pt" viewBox="0 0 500.000000 500.000000"
 preserveAspectRatio="xMidYMid meet">

<g transform="translate(0.000000,500.000000) scale(0.100000,-0.100000)"
fill="#000000" stroke="none">
<path d="M2410 4253 c-19 -2 -89 -15 -156 -28 -493 -99 -924 -410 -1181 -852
-31 -54 -43 -69 -39 -48 10 57 19 330 12 388 -9 72 -28 74 -45 6 -8 -28 -42
-139 -77 -246 -70 -211 -106 -335 -124 -425 -6 -32 -16 -57 -22 -55 -6 1 -17
-32 -25 -78 -7 -44 -27 -125 -44 -180 -110 -354 -88 -602 69 -776 38 -43 145
-109 176 -109 6 0 26 -34 45 -75 221 -491 661 -860 1182 -989 152 -38 234 -47
422 -48 132 0 167 -3 163 -13 -2 -7 1 -18 7 -24 6 -6 7 -11 3 -11 -5 0 -2 -8
5 -17 7 -10 9 -15 4 -10 -9 7 -95 -70 -95 -85 0 -4 18 12 41 37 37 40 43 43
63 33 17 -9 124 -22 114 -13 -15 12 -49 25 -44 16 11 -18 -9 -13 -38 10 -14
11 -24 25 -20 30 3 5 0 8 -8 7 -15 -3 -19 31 -5 50 5 6 6 12 1 12 -5 1 -97 2
-204 4 -211 4 -305 17 -477 66 -518 149 -941 545 -1135 1064 -28 77 -30 87
-25 186 7 131 30 204 131 409 76 155 115 259 136 361 26 127 21 368 -7 377 -7
3 -14 -13 -18 -42 -7 -44 -57 -150 -162 -345 -84 -154 -141 -355 -144 -509
l-2 -56 -10 78 c-8 65 -7 87 7 131 10 30 44 204 76 388 32 183 66 351 75 373
80 187 275 436 465 594 352 293 862 445 1300 387 222 -30 407 -84 580 -171 49
-24 92 -40 95 -35 21 34 -317 166 -540 210 -85 17 -153 23 -300 25 -104 2
-206 1 -225 -2z m-1386 -712 c-6 -167 -23 -286 -120 -831 -14 -80 -30 -163
-36 -185 l-10 -39 -14 34 c-22 51 -44 193 -44 279 0 85 22 247 45 331 42 151
171 537 177 527 3 -6 5 -58 2 -116z m183 -543 c-8 -169 -38 -272 -138 -478
-86 -175 -123 -270 -135 -347 l-8 -48 -6 50 c-10 80 -1 232 21 339 24 121 63
222 129 341 28 50 69 129 93 177 23 48 44 87 46 88 2 0 1 -55 -2 -122z m-444
-413 c9 -321 50 -496 157 -670 l23 -37 -49 25 c-60 30 -133 107 -167 174 -52
102 -74 250 -57 380 9 64 80 347 86 340 1 -1 4 -96 7 -212z m87 -240 c6 -60
19 -152 30 -205 11 -52 22 -106 25 -120 3 -14 -8 2 -23 35 -55 115 -93 308
-91 470 l0 70 24 -70 c15 -41 29 -115 35 -180z"/>
<path d="M3600 3945 c-28 -34 24 -80 55 -48 18 18 19 35 3 51 -16 16 -43 15
-58 -3z"/>
<path d="M3829 3744 c-17 -20 -1 -48 31 -52 30 -5 44 11 36 42 -7 30 -45 36
-67 10z"/>
<path d="M4030 3516 c-6 -8 -10 -25 -8 -38 2 -18 9 -23 33 -23 24 0 31 5 33
23 4 25 -13 52 -33 52 -7 0 -18 -7 -25 -14z"/>
<path d="M1640 3425 c0 -11 11 -15 45 -15 l45 0 0 -470 0 -470 -45 0 c-33 0
-45 -4 -45 -15 0 -12 20 -15 120 -15 100 0 120 3 120 15 0 11 -12 15 -45 15
l-45 0 1 393 c0 258 4 385 10 372 5 -11 78 -193 162 -405 152 -383 153 -385
182 -385 29 0 29 1 187 409 86 226 160 415 162 420 2 6 5 -172 5 -396 l1 -408
-45 0 c-33 0 -45 -4 -45 -15 0 -13 24 -15 160 -15 133 0 160 2 160 14 0 11
-14 16 -47 18 l-48 3 0 465 0 465 48 3 c33 2 47 7 47 18 0 11 -21 14 -114 14
l-113 0 -66 -172 c-174 -452 -244 -630 -251 -631 -6 -2 -142 334 -294 728
l-27 70 -113 3 c-95 2 -112 0 -112 -13z"/>
<path d="M4150 3310 c0 -6 11 -32 24 -58 67 -133 133 -361 157 -539 19 -145 6
-441 -24 -578 -40 -176 -120 -381 -198 -508 -18 -29 -28 -56 -24 -66 6 -14 8
-14 22 4 31 41 144 284 173 372 141 427 114 899 -75 1309 -30 65 -55 94 -55
64z"/>
<path d="M3072 2673 c-54 -153 -335 -911 -343 -925 -7 -13 -21 -18 -49 -18
-29 0 -40 -4 -40 -15 0 -12 20 -15 120 -15 98 0 120 3 120 14 0 11 -14 16 -49
18 l-48 3 51 142 c29 78 55 145 59 149 9 9 340 5 349 -4 3 -4 26 -63 51 -132
25 -69 49 -133 52 -142 6 -16 1 -18 -44 -18 -39 0 -51 -4 -51 -15 0 -13 24
-15 160 -15 136 0 160 2 160 15 0 10 -10 15 -34 15 -18 0 -38 6 -44 13 -5 6
-87 225 -183 485 -170 463 -174 472 -200 472 -20 0 -29 -7 -37 -27z m77 -384
c39 -108 71 -199 71 -203 0 -3 -70 -6 -156 -6 -145 0 -156 1 -149 18 4 9 38
104 77 210 39 106 74 189 78 185 5 -4 40 -96 79 -204z"/>
<path d="M3717 1639 c-95 -22 -199 -99 -256 -187 -33 -53 -61 -145 -61 -206 0
-32 -6 -45 -32 -69 -29 -25 -30 -26 -4 -7 34 24 39 19 51 -45 10 -61 52 -129
116 -190 65 -62 139 -101 217 -112 l51 -8 -45 -48 c-25 -26 -51 -44 -56 -40
-6 3 -8 1 -4 -5 3 -6 -2 -13 -11 -15 -16 -4 -16 -5 1 -6 16 -1 17 -3 5 -18
-13 -17 -12 -17 6 -2 14 11 26 14 40 9 34 -14 41 -10 16 9 -19 15 -22 21 -13
38 22 40 81 83 116 83 52 0 136 29 193 67 184 122 239 380 121 566 -96 151
-279 227 -451 186z m267 -42 c112 -51 200 -166 226 -291 31 -153 -37 -316
-171 -405 -98 -66 -208 -85 -317 -57 -83 21 -138 54 -201 121 -62 66 -87 119
-101 213 -24 170 58 330 211 412 102 54 244 57 353 7z"/>
<path d="M3709 1607 c-104 -30 -199 -112 -247 -215 -24 -50 -27 -70 -27 -157
0 -93 2 -105 32 -166 39 -80 111 -150 191 -187 50 -24 69 -27 162 -27 94 0
111 3 161 28 72 35 151 114 186 186 25 50 28 67 28 161 0 93 -3 112 -27 162
-37 79 -108 152 -184 189 -51 25 -78 32 -146 35 -50 2 -101 -1 -129 -9z m96
-25 l-5 -27 11 29 c10 24 15 27 41 22 17 -3 37 -6 44 -6 19 0 18 -56 -1 -64
-10 -3 -15 -16 -13 -34 3 -37 -29 -89 -44 -74 -6 6 -18 8 -27 4 -9 -4 -24 -7
-33 -7 -21 0 -58 47 -58 73 0 11 -7 25 -15 32 -8 7 -15 23 -15 35 0 18 7 25
30 30 16 4 34 4 40 0 5 -3 10 -2 10 2 0 5 9 9 20 10 17 2 19 -3 15 -25z m139
2 c12 -5 13 -9 3 -25 -16 -25 -22 -24 -25 6 -2 27 -1 28 22 19z m-264 -24 c0
-11 -4 -20 -9 -20 -14 0 -23 18 -16 30 10 17 25 11 25 -10z m335 -15 c14 -13
25 -21 25 -17 0 4 23 -17 51 -47 48 -51 49 -54 33 -72 -9 -11 -28 -19 -41 -19
-13 0 -26 -7 -29 -15 -8 -20 -76 -38 -85 -23 -4 7 -5 16 -2 22 3 5 1 6 -4 3
-6 -4 -16 -1 -22 6 -8 10 -3 19 21 37 28 21 31 21 25 4 -7 -18 -6 -17 8 1 18
25 25 32 50 51 20 15 20 15 -1 5 -12 -6 -24 -7 -28 -4 -3 3 -6 2 -6 -4 0 -11
-89 -77 -95 -71 -8 7 7 78 16 78 5 0 9 10 9 23 0 25 26 67 41 67 5 0 21 -11
34 -25z m-367 -7 c7 -7 12 -22 12 -35 0 -12 6 -26 14 -30 17 -10 38 -81 26
-88 -10 -6 -101 44 -116 63 -9 12 -11 12 -10 1 0 -8 14 -27 30 -44 16 -16 24
-22 17 -12 -8 9 -10 17 -7 17 15 0 66 -31 66 -40 0 -17 -21 -22 -38 -9 -14 11
-15 11 -4 -1 6 -8 12 -18 12 -22 0 -15 -72 4 -91 23 -10 10 -26 15 -36 13 -11
-3 -25 1 -32 10 -10 12 -9 20 4 40 10 14 25 26 34 26 11 0 12 3 4 8 -9 6 1 21
32 50 47 44 63 50 83 30z m92 -119 c0 -4 -4 -11 -10 -14 -5 -3 -10 -5 -10 -3
0 2 -4 19 -10 38 l-9 35 19 -24 c11 -13 20 -27 20 -32z m162 26 c-2 -14 -10
-25 -18 -25 -11 0 -11 5 -2 25 6 14 14 25 18 25 4 0 5 -11 2 -25z m-79 -48 c8
-20 -5 -117 -15 -117 -5 0 -8 6 -5 13 2 6 -2 32 -9 57 -8 25 -14 48 -14 53 0
12 38 8 43 -6z m67 -8 c0 -16 -39 -87 -51 -95 -14 -8 -5 52 13 91 10 22 38 25
38 4z m-115 -26 c9 -21 14 -47 13 -58 -3 -17 -8 -13 -32 22 -27 40 -30 73 -6
73 5 0 17 -17 25 -37z m383 19 c2 -7 -6 -12 -17 -12 -21 0 -27 11 -14 24 9 9
26 2 31 -12z m-668 -17 c10 -13 9 -15 -8 -15 -15 0 -20 5 -16 15 4 8 7 15 9
15 1 0 8 -7 15 -15z m447 -2 c4 -10 11 -22 17 -26 7 -5 5 -7 -4 -4 -8 2 -33
-11 -54 -30 -50 -41 -66 -43 -32 -2 14 17 26 36 26 43 0 14 20 36 32 36 5 0
12 -8 15 -17z m-220 0 c-4 -3 9 -26 29 -50 38 -46 37 -55 -3 -23 -14 11 -31
20 -38 20 -7 0 -18 6 -24 14 -10 11 -7 17 11 30 23 16 37 21 25 9z m461 -54
c-3 -16 -1 -29 4 -29 17 0 8 -40 -9 -41 -17 -1 -17 -2 0 -6 19 -5 20 -14 11
-62 -6 -27 -10 -31 -40 -31 -19 0 -34 5 -34 10 0 6 -12 10 -26 10 -32 0 -87
37 -77 53 10 16 10 58 0 64 -12 7 55 54 70 49 7 -3 18 1 25 8 36 36 82 21 76
-25z m-144 16 c-22 -16 -44 -19 -44 -6 0 11 18 19 44 20 20 1 20 1 0 -14z
m-519 -5 c3 -5 16 -10 27 -10 24 0 88 -37 88 -51 0 -5 -8 -10 -17 -10 -17 -1
-17 -2 0 -6 33 -9 19 -33 -20 -35 l-38 -1 38 -4 c20 -2 37 -7 37 -11 0 -14
-65 -46 -88 -43 -12 1 -25 -4 -28 -13 -14 -36 -64 -18 -64 24 0 21 46 50 80
50 11 0 20 4 20 8 0 4 -16 8 -35 8 -19 0 -30 -3 -25 -6 6 -4 -1 -12 -15 -18
-33 -15 -30 -16 -32 8 -1 12 5 20 15 21 16 1 16 2 0 6 -11 3 -15 12 -13 31 2
15 4 35 4 45 1 12 9 17 30 17 17 0 33 -4 36 -10z m106 0 c10 0 19 -7 19 -15 0
-19 -4 -19 -40 0 -31 16 -41 32 -14 21 9 -3 24 -6 35 -6z m357 -18 c5 -15 -62
-44 -92 -40 -18 3 -14 8 24 30 46 29 61 31 68 10z m-268 -12 c49 -25 53 -44 8
-35 -46 10 -68 23 -68 40 0 20 13 19 60 -5z m134 -42 c15 -24 -13 -53 -43 -43
-23 7 -28 34 -9 53 16 16 38 12 52 -10z m144 -13 c-1 -24 -5 -32 -12 -26 -6 6
-36 13 -66 17 l-54 7 47 12 c26 7 50 15 54 18 18 18 32 5 31 -28z m-243 4 c11
0 -5 -9 -35 -18 -57 -19 -77 -14 -66 15 5 13 14 15 44 10 20 -3 46 -6 57 -7z
m-6 -45 c-7 -8 -26 -22 -42 -31 -24 -12 -31 -12 -38 -2 -11 18 -3 27 34 38 52
15 62 14 46 -5z m215 6 c14 -5 26 -17 26 -26 0 -20 -40 -12 -85 17 l-30 19 32
0 c17 0 43 -4 57 -10z m-188 -26 c-9 -9 -23 -32 -31 -51 -15 -36 -27 -36 -46
-1 -7 12 -7 18 -1 14 6 -3 12 -2 14 3 4 11 71 59 77 55 2 -2 -4 -10 -13 -20z
m194 -38 c0 -1 -12 -13 -27 -25 -14 -13 -24 -17 -21 -9 3 8 -5 25 -19 37 -50
49 -46 61 12 29 30 -16 55 -31 55 -32z m-121 -39 c9 -23 8 -29 -4 -33 -35 -14
-42 1 -31 67 10 60 11 62 17 29 3 -19 11 -48 18 -63z m207 46 c-6 -6 -56 8
-56 16 0 17 14 19 36 4 14 -9 23 -18 20 -20z m-401 16 c9 -14 4 -18 -36 -25
l-34 -7 25 21 c29 24 36 26 45 11z m141 -42 c-12 -41 -38 -58 -43 -27 -4 20
35 83 46 75 6 -3 5 -23 -3 -48z m92 13 c23 -34 24 -51 5 -57 -13 -5 -31 24
-44 69 -11 39 8 33 39 -12z m175 -17 c4 -7 20 -13 34 -13 15 0 34 -7 44 -16
16 -15 17 -20 5 -43 -19 -35 -52 -64 -65 -56 -6 3 -9 0 -5 -8 3 -8 -8 -26 -27
-41 -28 -24 -34 -25 -53 -13 -14 10 -20 23 -18 40 2 16 -4 30 -16 39 -22 15
-38 73 -23 82 6 4 23 -1 38 -10 l28 -16 -25 20 c-25 21 -25 21 -5 40 22 22 74
19 88 -5z m-370 -12 c14 -17 28 -27 32 -23 4 4 4 -11 0 -33 -4 -22 -13 -45
-21 -51 -8 -6 -14 -22 -14 -36 0 -14 -8 -32 -18 -42 -18 -15 -21 -14 -60 14
-47 34 -49 37 -24 57 15 13 14 13 -7 2 -23 -11 -28 -9 -53 21 -31 38 -24 70
17 70 13 0 28 7 33 15 7 14 49 32 79 34 6 1 22 -12 36 -28z m487 10 c0 -19
-22 -23 -38 -7 -15 15 -14 16 11 16 15 0 27 -4 27 -9z m-670 -26 c-12 -15 -30
-12 -30 6 0 5 10 9 21 9 18 0 19 -2 9 -15z m260 -34 c0 -12 -39 -58 -40 -46 0
26 14 55 26 55 8 0 14 -4 14 -9z m154 -13 c10 -39 6 -44 -14 -18 -23 30 -25
40 -6 40 7 0 16 -10 20 -22z m-113 -5 c1 -17 2 -17 6 0 2 9 11 17 19 17 8 0
15 -8 15 -17 1 -17 2 -17 6 0 2 9 8 17 12 17 10 0 41 -55 41 -73 0 -8 6 -20
14 -26 20 -17 26 -69 8 -76 -42 -16 -82 20 -82 75 0 11 -4 20 -8 20 -4 0 -8
-16 -8 -35 0 -19 3 -30 6 -25 6 9 30 -30 30 -47 0 -10 -131 4 -142 15 -8 8 -4
23 10 50 11 22 18 43 15 46 -9 9 30 76 44 76 7 0 14 -8 14 -17z m-105 -151
c-4 -3 -11 -1 -18 6 -8 8 -8 15 3 28 13 16 14 16 17 -5 2 -13 1 -25 -2 -29z
m278 17 c-10 -16 -24 -9 -24 12 0 18 2 19 15 9 8 -7 12 -16 9 -21z"/>
<path d="M3785 1540 c12 -40 26 -59 19 -25 -4 17 -11 35 -16 40 -7 7 -8 1 -3
-15z"/>
<path d="M3782 1475 c0 -16 2 -22 5 -12 2 9 2 23 0 30 -3 6 -5 -1 -5 -18z"/>
<path d="M3811 1464 c0 -11 3 -14 6 -6 3 7 2 16 -1 19 -3 4 -6 -2 -5 -13z"/>
<path d="M4038 1263 c6 -2 18 -2 25 0 6 3 1 5 -13 5 -14 0 -19 -2 -12 -5z"/>
<path d="M4103 1259 c-18 -5 -33 -11 -33 -12 0 -1 18 -2 41 -2 22 0 36 1 30 3
-6 2 -9 8 -5 13 3 5 4 9 2 8 -2 0 -18 -5 -35 -10z"/>
<path d="M3568 1233 c7 -3 16 -2 19 1 4 3 -2 6 -13 5 -11 0 -14 -3 -6 -6z"/>
<path d="M3998 1089 c8 -10 11 -24 6 -31 -4 -7 -4 -10 1 -6 4 4 13 0 20 -9 7
-9 23 -18 36 -20 23 -3 23 -2 4 8 -11 6 -33 26 -50 43 -16 18 -24 24 -17 15z"/>
<path d="M3656 1093 c-6 -14 -5 -15 5 -6 7 7 10 15 7 18 -3 3 -9 -2 -12 -12z"/>
<path d="M3621 1035 c-25 -44 -16 -44 30 -2 19 17 28 26 19 20 -22 -17 -33
-16 -26 2 10 26 -1 16 -23 -20z"/>
<path d="M3811 994 c0 -11 3 -14 6 -6 3 7 2 16 -1 19 -3 4 -6 -2 -5 -13z"/>
<path d="M3165 1179 c-4 -6 -5 -12 -2 -15 2 -3 7 2 10 11 7 17 1 20 -8 4z"/>
<path d="M3101 1148 c2 -2 18 -14 34 -28 l30 -25 -24 28 c-14 15 -29 27 -34
27 -6 0 -8 -1 -6 -2z"/>
<path d="M3160 1144 c0 -4 10 -18 22 -31 l21 -23 -24 -9 c-19 -8 -12 -9 29 -6
l52 5 -38 -53 c-22 -28 -58 -85 -82 -124 -46 -79 -55 -84 -117 -58 -45 19 -55
19 -23 -1 l25 -15 -30 6 c-22 4 -26 3 -15 -5 8 -5 28 -7 44 -4 17 4 26 2 23
-3 -4 -6 4 -8 20 -5 18 3 24 1 19 -7 -4 -6 -17 -12 -29 -12 -17 -1 -18 -2 -4
-6 18 -5 24 -23 7 -23 -5 0 -9 -5 -7 -12 1 -6 -9 -14 -23 -18 l-25 -6 25 -7
c22 -7 23 -8 8 -17 -10 -7 -15 -17 -11 -27 4 -11 2 -14 -5 -9 -13 8 -86 -129
-77 -144 9 -15 -173 -5 -221 12 l-42 15 -4 -81 c-5 -89 -25 -139 -79 -201 -18
-20 -29 -38 -26 -41 3 -3 47 -1 98 6 105 12 220 48 294 90 54 31 141 104 113
94 -10 -3 -18 -11 -19 -18 0 -6 -4 -2 -9 9 -8 19 -9 19 -9 -2 -1 -12 -13 -31
-28 -43 l-28 -22 -8 69 c-4 37 -8 77 -9 89 0 11 26 74 58 140 32 65 58 125 57
131 0 7 3 11 7 8 4 -3 11 3 15 13 6 14 9 12 21 -13 11 -24 13 -25 7 -5 -5 23
-5 24 13 10 15 -12 15 -10 -3 13 l-21 27 31 57 c25 47 32 53 37 37 6 -14 9 -9
14 23 4 24 16 53 27 65 l18 23 1 -25 c1 -23 2 -23 11 -7 6 10 9 27 6 37 -6 24
18 34 33 14 7 -8 20 -14 29 -14 10 0 7 5 -9 13 -34 17 -37 43 -8 75 15 19 12
17 -13 -5 -45 -42 -79 -43 -113 -2 -14 17 -26 27 -26 23z m-155 -513 c-21 -43
-29 -39 -8 4 9 19 18 33 21 31 2 -2 -4 -18 -13 -35z m-44 -84 c-10 -9 -11 -8
-5 6 3 10 9 15 12 12 3 -3 0 -11 -7 -18z m-44 -89 c-14 -24 -42 -59 -63 -78
-38 -35 -38 -34 4 12 23 26 50 64 59 83 9 19 19 33 21 30 2 -2 -7 -23 -21 -47z"/>
<path d="M3030 1132 c0 -10 38 -45 60 -57 8 -4 -1 6 -20 23 -41 37 -35 40 23
12 23 -12 33 -14 22 -6 -11 9 -25 20 -32 26 -14 12 -53 13 -53 2z"/>
<path d="M3118 1063 c6 -2 18 -2 25 0 6 3 1 5 -13 5 -14 0 -19 -2 -12 -5z"/>
<path d="M3000 1050 c8 -5 20 -10 25 -10 6 0 3 5 -5 10 -8 5 -19 10 -25 10 -5
0 -3 -5 5 -10z"/>
<path d="M3168 1053 c7 -3 16 -2 19 1 4 3 -2 6 -13 5 -11 0 -14 -3 -6 -6z"/>
<path d="M2926 1017 c-4 -19 -2 -33 4 -35 5 -2 10 -13 11 -25 0 -18 2 -19 7
-5 5 13 11 15 22 8 8 -5 20 -10 25 -10 6 0 -5 9 -22 20 -38 23 -43 35 -11 24
19 -6 21 -5 11 8 -7 8 -11 17 -8 19 2 3 -4 10 -14 16 -16 10 -20 8 -25 -20z"/>
<path d="M3295 1030 c10 -11 20 -20 23 -20 3 0 -3 9 -13 20 -10 11 -20 20 -23
20 -3 0 3 -9 13 -20z"/>
<path d="M3048 1033 c6 -2 18 -2 25 0 6 3 1 5 -13 5 -14 0 -19 -2 -12 -5z"/>
<path d="M3108 1033 c6 -2 18 -2 25 0 6 3 1 5 -13 5 -14 0 -19 -2 -12 -5z"/>
<path d="M3376 1023 c-6 -14 -5 -15 5 -6 7 7 10 15 7 18 -3 3 -9 -2 -12 -12z"/>
<path d="M3023 1003 c9 -2 23 -2 30 0 6 3 -1 5 -18 5 -16 0 -22 -2 -12 -5z"/>
<path d="M3128 1003 c6 -2 18 -2 25 0 6 3 1 5 -13 5 -14 0 -19 -2 -12 -5z"/>
<path d="M3338 1003 c7 -3 16 -2 19 1 4 3 -2 6 -13 5 -11 0 -14 -3 -6 -6z"/>
<path d="M3307 950 c18 -19 34 -32 36 -29 2 2 -12 17 -32 33 l-36 30 32 -34z"/>
<path d="M3053 933 c9 -2 25 -2 35 0 9 3 1 5 -18 5 -19 0 -27 -2 -17 -5z"/>
<path d="M3288 905 c6 -12 22 -21 39 -22 28 -2 28 -2 4 8 -14 5 -32 15 -40 22
-12 10 -13 9 -3 -8z"/>
<path d="M3399 907 c-8 -8 -21 -16 -29 -20 -13 -5 -13 -6 1 -6 19 -1 56 25 48
34 -4 3 -13 0 -20 -8z"/>
<path d="M2916 893 c-6 -14 -5 -15 5 -6 7 7 10 15 7 18 -3 3 -9 -2 -12 -12z"/>
<path d="M3205 890 c-4 -12 -5 -24 -2 -27 3 -2 8 5 12 17 4 12 5 24 2 27 -3 2
-8 -5 -12 -17z"/>
<path d="M3215 850 c-3 -11 -2 -27 2 -35 6 -11 9 -5 9 20 0 40 -2 43 -11 15z"/>
<path d="M3250 865 c0 -4 11 -28 25 -51 17 -29 30 -41 40 -38 10 4 12 11 6 22
-12 23 -71 78 -71 67z"/>
<path d="M3326 837 c3 -10 9 -15 12 -12 3 3 0 11 -7 18 -10 9 -11 8 -5 -6z"/>
<path d="M2845 798 l-40 -43 43 40 c23 21 42 40 42 42 0 8 -9 0 -45 -39z"/>
<path d="M2924 814 c5 -12 1 -14 -17 -8 -12 3 -19 3 -15 -1 4 -4 37 -9 75 -11
l68 -4 -55 20 c-67 24 -63 23 -56 4z"/>
<path d="M3333 783 c-15 -32 -17 -46 -4 -39 5 4 11 0 14 -6 3 -7 5 6 5 30 0
23 -1 42 -2 42 0 0 -7 -12 -13 -27z"/>
<path d="M3256 787 c3 -10 9 -15 12 -12 3 3 0 11 -7 18 -10 9 -11 8 -5 -6z"/>
<path d="M2924 766 c11 -9 24 -16 30 -16 12 0 7 5 -24 19 -24 11 -24 11 -6 -3z"/>
<path d="M2988 773 c6 -2 18 -2 25 0 6 3 1 5 -13 5 -14 0 -19 -2 -12 -5z"/>
<path d="M3292 735 c-17 -37 -14 -45 4 -12 9 16 14 31 11 33 -2 2 -9 -7 -15
-21z"/>
<path d="M3150 725 c0 -5 5 -17 10 -25 5 -8 10 -10 10 -5 0 6 -5 17 -10 25 -5
8 -10 11 -10 5z"/>
<path d="M3510 703 c0 -14 77 -83 93 -83 6 0 -2 9 -19 19 -17 10 -40 31 -52
46 -12 15 -22 23 -22 18z"/>
<path d="M2820 686 c0 -2 8 -10 18 -17 15 -13 16 -12 3 4 -13 16 -21 21 -21
13z"/>
<path d="M3266 675 c-9 -26 -7 -32 5 -12 6 10 9 21 6 23 -2 3 -7 -2 -11 -11z"/>
<path d="M3130 670 c0 -3 5 -21 10 -40 15 -48 14 -127 0 -148 -7 -9 8 5 32 31
25 26 55 67 67 90 12 23 16 34 9 24 -7 -11 -27 -39 -44 -64 l-31 -44 -7 59
c-4 32 -13 68 -21 78 -8 10 -15 17 -15 14z"/>
<path d="M3490 660 c-9 -6 -10 -10 -3 -10 6 0 15 5 18 10 8 12 4 12 -15 0z"/>
<path d="M3648 635 c-16 -13 -24 -26 -20 -29 5 -3 19 8 31 24 26 36 24 37 -11
5z"/>
<path d="M3820 650 c0 -5 7 -7 15 -4 8 4 15 8 15 10 0 2 -7 4 -15 4 -8 0 -15
-4 -15 -10z"/>
<path d="M3182 630 c0 -14 2 -19 5 -12 2 6 2 18 0 25 -3 6 -5 1 -5 -13z"/>
<path d="M3755 610 c3 -5 8 -10 11 -10 2 0 4 5 4 10 0 6 -5 10 -11 10 -5 0 -7
-4 -4 -10z"/>
<path d="M3833 603 c9 -2 23 -2 30 0 6 3 -1 5 -18 5 -16 0 -22 -2 -12 -5z"/>
<path d="M3730 590 c0 -5 5 -10 11 -10 5 0 7 5 4 10 -3 6 -8 10 -11 10 -2 0
-4 -4 -4 -10z"/>
<path d="M3588 543 c-40 -59 -112 -137 -152 -166 l-31 -22 30 40 29 40 -33
-30 -34 -30 18 28 c10 15 15 31 11 35 -4 4 -12 -2 -19 -13 -6 -11 -28 -38 -49
-60 l-39 -40 40 59 c41 60 44 82 10 73 -11 -3 -17 -2 -15 2 3 4 -3 12 -13 18
-23 14 -46 0 -37 -22 6 -16 4 -16 -11 -4 -15 12 -16 12 -10 -3 4 -12 2 -15 -8
-12 -24 10 -104 -66 -135 -127 -34 -65 -80 -109 -118 -109 -40 -1 65 -45 157
-66 148 -34 268 -2 373 99 30 29 41 40 24 26 -17 -14 -44 -35 -61 -46 -33 -23
-109 -47 -100 -32 4 5 11 9 17 9 6 0 25 11 42 24 22 16 32 33 34 55 2 30 1 31
-20 20 -22 -12 -22 -11 -5 8 30 35 19 49 -15 17 -31 -29 -31 -29 4 16 20 25
50 74 68 110 18 36 46 84 62 108 16 23 27 42 24 42 -3 0 -20 -21 -38 -47z"/>
<path d="M3038 564 c-8 -13 2 -64 13 -64 11 0 11 27 0 54 -4 11 -10 15 -13 10z"/>
<path d="M3504 545 c11 -8 25 -15 30 -15 6 0 2 7 -8 15 -11 8 -25 15 -30 15
-6 0 -2 -7 8 -15z"/>
<path d="M3800 541 c0 -5 7 -15 17 -22 15 -13 15 -12 4 9 -12 23 -21 28 -21
13z"/>
<path d="M3385 530 c-4 -6 11 -10 37 -9 36 1 39 2 18 9 -36 11 -48 11 -55 0z"/>
<path d="M3735 490 c-4 -6 -10 -8 -15 -5 -4 3 -6 -4 -3 -15 3 -11 10 -20 16
-20 6 0 7 3 4 6 -3 4 -2 15 4 25 10 20 5 27 -6 9z"/>
<path d="M3048 483 c7 -3 16 -2 19 1 4 3 -2 6 -13 5 -11 0 -14 -3 -6 -6z"/>
<path d="M3062 450 c0 -14 2 -19 5 -12 2 6 2 18 0 25 -3 6 -5 1 -5 -13z"/>
<path d="M3109 443 c-13 -16 -12 -17 4 -4 16 13 21 21 13 21 -2 0 -10 -8 -17
-17z"/>
<path d="M3645 449 c-5 -7 -4 -10 3 -5 11 7 36 -27 26 -37 -3 -3 -1 -8 5 -11
5 -4 15 4 22 16 6 13 8 20 4 15 -5 -4 -19 2 -31 14 -16 15 -24 17 -29 8z"/>
<path d="M3600 406 c0 -3 14 -12 30 -21 17 -9 30 -13 30 -11 0 3 -13 12 -30
21 -16 9 -30 13 -30 11z"/>
<path d="M3604 371 c21 -23 26 -26 26 -11 0 5 -10 15 -22 21 -23 12 -23 12 -4
-10z"/>
<path d="M3650 347 c0 -3 12 -12 26 -22 15 -9 23 -12 20 -6 -7 11 -46 35 -46
28z"/>
</g>
</svg>
